<svg width="35" height="35" viewBox="0 0 40 40" fill="none" xmlns="http://www.w3.org/2000/svg">
<path d="M0 20C0 8.95431 8.95431 0 20 0C31.0457 0 40 8.95431 40 20C40 31.0457 31.0457 40 20 40C8.95431 40 0 31.0457 0 20ZM18.75 2.69138C17.0764 3.2032 15.4115 4.74306 14.0319 7.32997C13.6741 8.00085 13.3434 8.7296 13.0443 9.50903C14.8072 9.90226 16.7262 10.1528 18.75 10.2264V2.69138ZM10.6213 8.8486C10.9786 7.88839 11.3817 6.98654 11.826 6.1535C12.2728 5.31575 12.7716 4.53103 13.3182 3.82088C11.1738 4.70743 9.24415 6.00787 7.62863 7.62261C8.53234 8.08221 9.53524 8.49443 10.6213 8.8486ZM8.77113 18.75C8.86186 16.075 9.2421 13.5316 9.86207 11.2307C8.43831 10.7675 7.12444 10.2075 5.95115 9.5636C4.01601 12.1643 2.78596 15.3208 2.54395 18.75H8.77113ZM12.2717 11.8971C11.7156 13.9661 11.3624 16.2825 11.2726 18.75H18.75V12.7279C16.4755 12.6507 14.2927 12.3639 12.2717 11.8971ZM21.25 12.7279V18.75H28.7273C28.6376 16.2825 28.2844 13.9661 27.7283 11.8971C25.7073 12.3639 23.5245 12.6507 21.25 12.7279ZM11.2726 21.25C11.3624 23.7175 11.7156 26.0339 12.2717 28.1029C14.2927 27.636 16.4755 27.3493 18.75 27.2721V21.25H11.2726ZM21.25 21.25V27.2721C23.5245 27.3493 25.7073 27.636 27.7283 28.1029C28.2844 26.0339 28.6376 23.7175 28.7273 21.25H21.25ZM13.0443 30.4909C13.3434 31.2704 13.6741 31.9991 14.0319 32.67C15.4115 35.2569 17.0764 36.7968 18.75 37.3086V29.7736C16.7262 29.8472 14.8072 30.0977 13.0443 30.4909ZM13.3182 36.1791C12.7716 35.4689 12.2728 34.6842 11.826 33.8465C11.3817 33.0134 10.9786 32.1116 10.6213 31.1514C9.53524 31.5055 8.53234 31.9178 7.62863 32.3774C9.24415 33.9921 11.1739 35.2925 13.3182 36.1791ZM9.86207 28.7692C9.2421 26.4684 8.86186 23.925 8.77113 21.25H2.54395C2.78596 24.6792 4.01601 27.8357 5.95115 30.4364C7.12444 29.7924 8.43831 29.2324 9.86207 28.7692ZM26.6818 36.1791C28.8261 35.2925 30.7558 33.9921 32.3714 32.3774C31.4676 31.9178 30.4647 31.5055 29.3787 31.1514C29.0214 32.1116 28.6183 33.0134 28.174 33.8465C27.7272 34.6842 27.2284 35.4689 26.6818 36.1791ZM21.25 29.7736V37.3086C22.9236 36.7968 24.5884 35.2569 25.9681 32.67C26.3259 31.9991 26.6566 31.2704 26.9557 30.4909C25.1928 30.0977 23.2737 29.8472 21.25 29.7736ZM30.1379 28.7692C31.5617 29.2324 32.8755 29.7924 34.0488 30.4364C35.984 27.8357 37.214 24.6792 37.456 21.25H31.2289C31.1381 23.925 30.7579 26.4684 30.1379 28.7692ZM37.456 18.75C37.214 15.3208 35.984 12.1643 34.0488 9.5636C32.8755 10.2075 31.5617 10.7675 30.1379 11.2307C30.7579 13.5316 31.1381 16.075 31.2289 18.75H37.456ZM28.174 6.1535C28.6183 6.98654 29.0214 7.88839 29.3787 8.8486C30.4647 8.49443 31.4676 8.0822 32.3714 7.62261C30.7558 6.00787 28.8261 4.70743 26.6818 3.82087C27.2284 4.53102 27.7272 5.31575 28.174 6.1535ZM26.9557 9.50903C26.6566 8.7296 26.3259 8.00085 25.9681 7.32997C24.5884 4.74306 22.9236 3.2032 21.25 2.69138V10.2264C23.2737 10.1528 25.1928 9.90226 26.9557 9.50903Z" fill="#003366"/>
</svg>
