<?xml version="1.0" standalone="no"?>
<!DOCTYPE svg PUBLIC "-//W3C//DTD SVG 20010904//EN"
 "http://www.w3.org/TR/2001/REC-SVG-20010904/DTD/svg10.dtd">
<svg version="1.0" xmlns="http://www.w3.org/2000/svg"
 width="40" height="40" viewBox="0 0 1280.000000 1280.000000"
 preserveAspectRatio="xMidYMid meet">
<metadata>
Created by potrace 1.16, written by Peter Selinger 2001-2019
</metadata>
<g transform="translate(0.000000,1280.000000) scale(0.100000,-0.100000)"
fill="#009933" stroke="none">
<path d="M8414 11726 c-98 -19 -190 -70 -264 -145 -114 -116 -150 -212 -150
-398 l0 -113 -2556 0 c-2274 0 -2568 -2 -2662 -16 -195 -29 -381 -102 -561
-221 -111 -73 -328 -289 -400 -398 -108 -165 -176 -340 -206 -531 -26 -162
-17 -430 20 -574 60 -242 169 -432 360 -629 210 -217 441 -349 723 -413 97
-22 98 -22 1454 -28 l1358 -5 26 -26 c15 -16 30 -45 35 -70 4 -24 8 -189 9
-366 l0 -323 -2000 0 -2000 0 0 -2670 0 -2670 4358 2 4357 3 96 27 c193 53
354 151 500 305 128 135 200 258 256 438 l28 90 0 1800 0 1800 -24 85 c-49
176 -130 316 -260 453 -146 154 -307 252 -500 305 l-96 27 -1957 3 -1958 2 0
396 c0 440 -5 487 -65 627 -55 129 -95 187 -205 298 -149 150 -276 221 -465
260 -85 18 -161 19 -1400 19 -1440 0 -1371 -2 -1500 61 -105 53 -215 157 -280
265 -104 172 -100 399 9 567 72 112 203 219 326 267 l65 25 2558 3 2557 2 0
-115 c0 -97 4 -128 26 -193 50 -154 171 -274 326 -326 l77 -26 585 0 586 0 0
130 0 130 400 0 400 0 0 270 0 270 -400 0 -400 0 0 265 0 265 400 0 400 0 0
270 0 270 -400 0 -400 0 0 135 0 135 -562 -1 c-397 -1 -581 -5 -624 -13z
m-2014 -5991 l0 -665 -800 0 -800 0 0 400 c0 220 -2 400 -4 400 -2 0 -476
-295 -1053 -656 -576 -361 -1054 -659 -1060 -661 -10 -4 -13 184 -13 921 l0
926 1865 0 1865 0 0 -665z m3730 -935 l0 -1600 -1330 0 -1330 0 0 1600 0 1600
1330 0 1330 0 0 -1600z m-3730 -670 l0 -930 -1865 0 -1865 0 0 665 0 665 795
0 795 0 0 -400 c0 -220 3 -400 8 -400 4 0 484 299 1067 664 583 365 1061 665
1063 665 1 1 2 -417 2 -929z"/>
</g>
</svg>
