<?xml version="1.0" standalone="no"?>
<!DOCTYPE svg PUBLIC "-//W3C//DTD SVG 20010904//EN"
 "http://www.w3.org/TR/2001/REC-SVG-20010904/DTD/svg10.dtd">
<svg version="1.0" xmlns="http://www.w3.org/2000/svg"
 width="40" height="40" viewBox="0 0 1280.000000 1280.000000"
 preserveAspectRatio="xMidYMid meet">
<metadata>
Created by potrace 1.16, written by Peter Selinger 2001-2019
</metadata>
<g transform="translate(0.000000,1280.000000) scale(0.100000,-0.100000)"
fill="#003366" stroke="none">
<path d="M1456 9054 c-135 -33 -271 -140 -334 -265 -64 -128 -62 -49 -62
-1731 0 -841 2 -1528 5 -1528 3 0 45 26 93 58 292 196 619 346 910 416 l72 18
0 989 0 989 3730 0 3730 0 0 -1600 0 -1600 -2040 0 c-1122 0 -2040 -2 -2040
-5 0 -2 33 -55 74 -117 178 -271 317 -571 407 -875 l21 -73 2088 0 c1370 0
2106 3 2141 10 170 32 321 162 390 335 l24 60 3 598 3 597 534 0 535 0 0 1070
0 1070 -535 0 -535 0 0 564 c0 339 -4 585 -10 617 -32 170 -162 321 -335 390
l-60 24 -4375 2 c-3754 1 -4383 -1 -4434 -13z"/>
<path d="M1431 4426 l-375 -375 444 -448 c245 -246 494 -499 555 -561 l110
-112 -385 -388 c-212 -213 -460 -464 -553 -557 l-167 -170 378 -378 377 -377
558 551 558 552 112 -109 c62 -60 314 -309 560 -554 l448 -444 375 375 c205
205 374 378 374 384 0 6 -250 260 -555 565 l-555 555 555 555 c305 305 555
560 555 565 0 13 -732 745 -745 745 -5 0 -260 -250 -565 -555 l-555 -555 -555
555 c-305 305 -559 555 -565 555 -6 0 -179 -168 -384 -374z"/>
</g>
</svg>
