<?xml version="1.0" standalone="no"?>
<!DOCTYPE svg PUBLIC "-//W3C//DTD SVG 20010904//EN"
 "http://www.w3.org/TR/2001/REC-SVG-20010904/DTD/svg10.dtd">
<svg version="1.0" xmlns="http://www.w3.org/2000/svg"
 width="45" height="45" viewBox="0 0 1280.000000 1280.000000"
 preserveAspectRatio="xMidYMid meet">
<metadata>
Created by potrace 1.16, written by Peter Selinger 2001-2019
</metadata>
<g transform="translate(0.000000,1280.000000) scale(0.100000,-0.100000)"
fill="#003366" stroke="none">
<path d="M1747 8944 c-217 -52 -401 -238 -452 -457 -13 -59 -15 -299 -13
-2114 l3 -2048 23 -65 c66 -182 210 -326 392 -392 l65 -23 4155 0 4155 0 65
23 c183 66 326 209 392 392 23 65 23 67 26 623 l3 557 479 0 480 0 0 960 0
960 -480 0 -479 0 -3 558 c-3 555 -3 557 -26 622 -66 183 -209 326 -392 392
l-65 23 -4135 2 c-3517 1 -4144 -1 -4193 -13z"/>
</g>
</svg>
