<?xml version="1.0" standalone="no"?>
<!DOCTYPE svg PUBLIC "-//W3C//DTD SVG 20010904//EN"
 "http://www.w3.org/TR/2001/REC-SVG-20010904/DTD/svg10.dtd">
<svg version="1.0" xmlns="http://www.w3.org/2000/svg"
 width="40" height="40" viewBox="0 0 1280.000000 1280.000000"
 preserveAspectRatio="xMidYMid meet">
<metadata>
Created by potrace 1.16, written by Peter Selinger 2001-2019
</metadata>
<g transform="translate(0.000000,1280.000000) scale(0.100000,-0.100000)"
fill="#009933" stroke="none">
<path d="M2735 10130 c-482 -55 -829 -284 -1095 -725 -173 -286 -344 -808
-445 -1358 -167 -911 -177 -2190 -25 -3147 70 -436 178 -844 316 -1189 239
-595 625 -941 1148 -1026 333 -54 688 -9 951 122 232 116 439 313 595 568 102
166 224 462 309 752 137 469 218 961 262 1613 17 242 17 1077 1 1315 -58 827
-171 1410 -384 1975 -238 632 -631 996 -1173 1086 -113 18 -355 26 -460 14z
m382 -460 c72 -10 189 -41 222 -60 10 -5 -5 -13 -45 -24 -177 -49 -336 -144
-474 -285 -368 -374 -551 -1020 -621 -2191 -16 -266 -16 -1154 0 -1420 40
-680 111 -1132 237 -1508 174 -525 454 -844 843 -962 81 -25 80 -27 -16 -58
-149 -49 -445 -55 -593 -12 -228 66 -420 219 -585 465 -293 438 -464 1064
-542 1980 -25 303 -26 1306 0 1605 76 888 237 1503 510 1940 180 288 420 474
677 525 80 16 282 19 387 5z m492 -549 c236 -73 416 -356 536 -844 97 -397
150 -885 164 -1529 27 -1259 -79 -2163 -314 -2654 -29 -62 -71 -138 -93 -171
-58 -85 -164 -180 -242 -217 -60 -28 -73 -31 -176 -31 -108 0 -112 1 -187 38
-370 183 -588 885 -648 2086 -13 271 -7 1198 10 1416 29 365 64 640 112 875
143 691 385 1048 711 1050 38 0 92 -8 127 -19z"/>
<path d="M8070 7430 l0 -520 -1322 0 c-795 0 -1318 -4 -1312 -9 5 -5 124 -73
264 -151 140 -79 489 -273 775 -433 286 -159 691 -385 900 -502 209 -117 522
-291 695 -388 173 -96 477 -266 675 -376 197 -111 363 -201 367 -201 4 0 8
234 8 520 l0 520 1318 0 c1182 1 1315 2 1297 16 -11 8 -87 52 -170 98 -82 46
-305 170 -495 276 -190 106 -383 214 -430 240 -47 26 -260 145 -475 265 -214
120 -428 239 -475 265 -47 26 -238 133 -425 237 -187 104 -443 248 -570 318
-126 71 -317 177 -424 237 -106 59 -195 108 -197 108 -2 0 -4 -234 -4 -520z"/>
</g>
</svg>
