<svg width="24" height="24" viewBox="0 0 24 24" fill="none" xmlns="http://www.w3.org/2000/svg">
<path d="M0.821468 0.821491C1.47234 0.170617 2.52762 0.170617 3.17849 0.821491L12 9.64298L20.8215 0.821491C21.4723 0.170617 22.5276 0.170617 23.1785 0.821491C23.8294 1.47237 23.8294 2.52764 23.1785 3.17851L14.357 12L23.1785 20.8215C23.8294 21.4724 23.8294 22.5276 23.1785 23.1785C22.5276 23.8294 21.4723 23.8294 20.8215 23.1785L12 14.357L3.17849 23.1785C2.52762 23.8294 1.47234 23.8294 0.821468 23.1785C0.170594 22.5276 0.170594 21.4724 0.821468 20.8215L9.64296 12L0.821468 3.17851C0.170594 2.52764 0.170594 1.47237 0.821468 0.821491Z" fill="#797979"/>
</svg>
