<svg width="100" height="100" viewBox="0 0 100 100" fill="none" xmlns="http://www.w3.org/2000/svg">
<path d="M68.75 37.5C68.75 47.8553 60.3553 56.25 50 56.25C39.6447 56.25 31.25 47.8553 31.25 37.5C31.25 27.1447 39.6447 18.75 50 18.75C60.3553 18.75 68.75 27.1447 68.75 37.5Z" fill="#797979"/>
<path fill-rule="evenodd" clip-rule="evenodd" d="M0 50C0 22.3858 22.3858 0 50 0C77.6142 0 100 22.3858 100 50C100 77.6142 77.6142 100 50 100C22.3858 100 0 77.6142 0 50ZM50 6.25C25.8375 6.25 6.25 25.8375 6.25 50C6.25 60.3339 9.83285 69.831 15.8241 77.3169C20.2683 70.1578 30.029 62.5 50 62.5C69.9711 62.5 79.7317 70.1578 84.1759 77.3169C90.1672 69.831 93.75 60.3339 93.75 50C93.75 25.8375 74.1625 6.25 50 6.25Z" fill="#797979"/>
</svg>
