<svg width="122" height="120" viewBox="0 0 122 120" fill="none" xmlns="http://www.w3.org/2000/svg">
<path d="M0 3.75C0 1.67893 1.69366 0 3.78289 0H26.4803C28.5695 0 30.2632 1.67893 30.2632 3.75C30.2632 5.82107 28.5695 7.5 26.4803 7.5H7.56579V26.25C7.56579 28.3211 5.87213 30 3.78289 30C1.69366 30 0 28.3211 0 26.25V3.75Z" fill="#797979"/>
<path d="M90.7895 3.75C90.7895 1.67893 92.4831 0 94.5724 0H117.27C119.359 0 121.053 1.67893 121.053 3.75V26.25C121.053 28.3211 119.359 30 117.27 30C115.181 30 113.487 28.3211 113.487 26.25V7.5H94.5724C92.4831 7.5 90.7895 5.82107 90.7895 3.75Z" fill="#797979"/>
<path d="M3.78289 90C5.87213 90 7.56579 91.6789 7.56579 93.75V112.5H26.4803C28.5695 112.5 30.2632 114.179 30.2632 116.25C30.2632 118.321 28.5695 120 26.4803 120H3.78289C1.69366 120 0 118.321 0 116.25V93.75C0 91.6789 1.69366 90 3.78289 90Z" fill="#797979"/>
<path d="M117.27 90C119.359 90 121.053 91.6789 121.053 93.75V116.25C121.053 118.321 119.359 120 117.27 120H94.5724C92.4831 120 90.7895 118.321 90.7895 116.25C90.7895 114.179 92.4831 112.5 94.5724 112.5H113.487V93.75C113.487 91.6789 115.181 90 117.27 90Z" fill="#797979"/>
<path d="M30.2632 30H37.8289V37.5H30.2632V30Z" fill="#797979"/>
<path d="M52.9605 15H15.1316V52.5H52.9605V15ZM22.6974 22.5H45.3947V45H22.6974V22.5Z" fill="#797979"/>
<path d="M37.8289 82.5H30.2632V90H37.8289V82.5Z" fill="#797979"/>
<path d="M52.9605 67.5H15.1316V105H52.9605V67.5ZM22.6974 75H45.3947V97.5H22.6974V75Z" fill="#797979"/>
<path d="M83.2237 30H90.7895V37.5H83.2237V30Z" fill="#797979"/>
<path d="M68.0921 15H105.921V52.5H68.0921V15ZM75.6579 22.5V45H98.3553V22.5H75.6579Z" fill="#797979"/>
<path d="M60.5263 60V75H68.0921V82.5H60.5263V90H75.6579V75H83.2237V90H90.7895V82.5H105.921V75H83.2237V60H60.5263ZM75.6579 75H68.0921V67.5H75.6579V75Z" fill="#797979"/>
<path d="M105.921 90H98.3553V97.5H83.2237V105H105.921V90Z" fill="#797979"/>
<path d="M75.6579 105V97.5H60.5263V105H75.6579Z" fill="#797979"/>
<path d="M90.7895 67.5H105.921V60H90.7895V67.5Z" fill="#797979"/>
</svg>
