<svg width="100" height="100" viewBox="0 0 100 100" fill="none" xmlns="http://www.w3.org/2000/svg">
<path d="M43.75 15.625C43.75 13.8991 45.1491 12.5 46.875 12.5H90.625C92.3509 12.5 93.75 13.8991 93.75 15.625V21.875C93.75 23.6009 92.3509 25 90.625 25H46.875C45.1491 25 43.75 23.6009 43.75 21.875V15.625Z" fill="#797979"/>
<path d="M12.5 6.25C5.59644 6.25 0 11.8464 0 18.75V31.25C0 38.1536 5.59644 43.75 12.5 43.75H25C31.9036 43.75 37.5 38.1536 37.5 31.25V18.75C37.5 11.8464 31.9036 6.25 25 6.25H12.5ZM12.5 56.25C5.59644 56.25 0 61.8464 0 68.75V81.25C0 88.1536 5.59644 93.75 12.5 93.75H25C31.9036 93.75 37.5 88.1536 37.5 81.25V68.75C37.5 61.8464 31.9036 56.25 25 56.25H12.5ZM17.8347 33.4597C16.6143 34.6801 14.6357 34.6801 13.4153 33.4597L7.16529 27.2097C5.9449 25.9893 5.9449 24.0107 7.16529 22.7903C8.38568 21.5699 10.3643 21.5699 11.5847 22.7903L15.625 26.8306L25.9153 16.5403C27.1357 15.3199 29.1143 15.3199 30.3347 16.5403C31.5551 17.7607 31.5551 19.7393 30.3347 20.9597L17.8347 33.4597ZM17.8347 83.4597C16.6143 84.6801 14.6357 84.6801 13.4153 83.4597L7.16529 77.2097C5.9449 75.9893 5.9449 74.0107 7.16529 72.7903C8.38568 71.5699 10.3643 71.5699 11.5847 72.7903L15.625 76.8306L25.9153 66.5403C27.1357 65.3199 29.1143 65.3199 30.3347 66.5403C31.5551 67.7607 31.5551 69.7393 30.3347 70.9597L17.8347 83.4597Z" fill="#797979"/>
<path d="M43.75 65.625C43.75 63.8991 45.1491 62.5 46.875 62.5H90.625C92.3509 62.5 93.75 63.8991 93.75 65.625V71.875C93.75 73.6009 92.3509 75 90.625 75H46.875C45.1491 75 43.75 73.6009 43.75 71.875V65.625Z" fill="#797979"/>
<path d="M43.75 34.375C43.75 32.6491 45.1491 31.25 46.875 31.25H78.125C79.8509 31.25 81.25 32.6491 81.25 34.375C81.25 36.1009 79.8509 37.5 78.125 37.5H46.875C45.1491 37.5 43.75 36.1009 43.75 34.375Z" fill="#797979"/>
<path d="M43.75 84.375C43.75 82.6491 45.1491 81.25 46.875 81.25H78.125C79.8509 81.25 81.25 82.6491 81.25 84.375C81.25 86.1009 79.8509 87.5 78.125 87.5H46.875C45.1491 87.5 43.75 86.1009 43.75 84.375Z" fill="#797979"/>
</svg>
