<svg width="50" height="40" viewBox="0 0 25 25" fill="none" xmlns="http://www.w3.org/2000/svg">
<path d="M15.625 12.5C15.625 14.2259 14.2259 15.625 12.5 15.625C10.7741 15.625 9.375 14.2259 9.375 12.5C9.375 10.7741 10.7741 9.375 12.5 9.375C14.2259 9.375 15.625 10.7741 15.625 12.5Z" fill="#FF9900"/>
<path d="M12.5 20.3125C16.8147 20.3125 20.3125 16.8147 20.3125 12.5C20.3125 8.18528 16.8147 4.6875 12.5 4.6875C8.18528 4.6875 4.6875 8.18528 4.6875 12.5C4.6875 16.8147 8.18528 20.3125 12.5 20.3125ZM12.5 17.1875C9.91117 17.1875 7.8125 15.0888 7.8125 12.5C7.8125 9.91117 9.91117 7.8125 12.5 7.8125C15.0888 7.8125 17.1875 9.91117 17.1875 12.5C17.1875 15.0888 15.0888 17.1875 12.5 17.1875Z" fill="#FF9900"/>
</svg>
